<svg width="200" height="16" viewBox="0 0 200 16" fill="none" xmlns="http://www.w3.org/2000/svg">
<path fill-rule="evenodd" clip-rule="evenodd" d="M142.389 13.346C141.967 13.346 141.563 13.1819 141.265 12.8898C140.967 12.5978 140.8 12.2016 140.8 11.7886V4.20565C140.8 3.7926 140.967 3.39647 141.265 3.1044C141.563 2.81233 141.967 2.64823 142.389 2.64823H149.632V0.0117188H138.562C137.7 0.0117188 136.874 0.347253 136.264 0.944522C135.655 1.54179 135.312 2.35187 135.312 3.19654V12.8152C135.314 13.6588 135.657 14.4674 136.266 15.0634C136.876 15.6594 137.701 15.9942 138.562 15.9942H149.632V13.3402L142.389 13.346Z" fill="black"/>
<path fill-rule="evenodd" clip-rule="evenodd" d="M10.4211 16H15.7893L9.37361 7.41377L14.9144 0.00585938H9.99851L5.30278 6.288V0.0991874H0V1.04997H0.868918V16H5.30278V9.19284H5.33254L10.4211 16Z" fill="black"/>
<path fill-rule="evenodd" clip-rule="evenodd" d="M28.6437 10.3245L31.8516 5.22068L35.0535 10.3245H28.6437ZM38.6185 15.9942H44.0879L33.2085 0.0351562H28.5961L29.5067 1.48173L19.6094 15.9942H25.0788L26.769 13.311H36.9342L38.6185 15.9942Z" fill="black"/>
<path fill-rule="evenodd" clip-rule="evenodd" d="M59.4907 9.11696H53.4024V1.88404H59.4907C62.8533 1.88404 65.5791 3.49979 65.5791 5.50051C65.5791 7.50123 62.8533 9.11696 59.4907 9.11696ZM59.699 0.0524902H48.9863V15.9941H53.4083V10.9427H59.705C65.7279 10.9427 70.6081 8.5045 70.6081 5.49467C70.6081 2.48484 65.7219 0.0524902 59.699 0.0524902Z" fill="black"/>
<path fill-rule="evenodd" clip-rule="evenodd" d="M97.4619 13.83L89.9869 0H80.9049L73.3941 13.83H69.7637V15.9999H80.9941V13.83H77.7625L83.1843 3.85561L89.0584 13.83H84.815V15.9999H101.104V13.83H97.4619Z" fill="black"/>
<path fill-rule="evenodd" clip-rule="evenodd" d="M110.347 12.3485C110.049 12.3485 109.764 12.2332 109.553 12.0277C109.343 11.8222 109.223 11.5433 109.222 11.2519V4.75978C109.223 4.4684 109.343 4.1895 109.553 3.98401C109.764 3.77853 110.049 3.66316 110.347 3.66317H129.266V0.0117188H108.466C107.677 0.0117188 106.92 0.318981 106.362 0.865931C105.804 1.41288 105.49 2.15472 105.49 2.92822V13.0777C105.49 13.8512 105.804 14.593 106.362 15.1399C106.92 15.6869 107.677 15.9942 108.466 15.9942H129.266V12.3427L110.347 12.3485Z" fill="black"/>
<path fill-rule="evenodd" clip-rule="evenodd" d="M171.647 10.2777C171.647 10.7867 171.441 11.2748 171.073 11.6347C170.706 11.9946 170.208 12.1967 169.689 12.1967H161.464C161.207 12.1967 160.953 12.1471 160.715 12.0506C160.478 11.954 160.263 11.8126 160.081 11.6343C159.9 11.456 159.756 11.2444 159.659 11.0116C159.561 10.7788 159.511 10.5294 159.512 10.2777V5.81544C159.512 5.30802 159.717 4.82138 160.083 4.46258C160.45 4.10379 160.946 3.90221 161.464 3.90221H169.689C169.946 3.90144 170.2 3.95036 170.438 4.04617C170.675 4.14197 170.891 4.28278 171.073 4.46052C171.255 4.63826 171.399 4.84943 171.498 5.08193C171.596 5.31444 171.647 5.5637 171.647 5.81544V10.2777ZM171.807 0.0932617H159.345C158.152 0.0932617 157.007 0.557872 156.164 1.38486C155.32 2.21185 154.846 3.33347 154.846 4.50301V11.5901C154.845 12.1694 154.961 12.7432 155.187 13.2786C155.412 13.8139 155.744 14.3004 156.162 14.71C156.58 15.1196 157.076 15.4444 157.622 15.6658C158.169 15.8871 158.754 16.0006 159.345 15.9999H171.807C172.399 16.0006 172.985 15.8871 173.531 15.6659C174.078 15.4446 174.574 15.1199 174.993 14.7103C175.411 14.3008 175.743 13.8144 175.97 13.279C176.196 12.7436 176.313 12.1697 176.313 11.5901V4.50301C176.311 3.33294 175.836 2.21133 174.991 1.3845C174.146 0.557683 173.001 0.0932607 171.807 0.0932617Z" fill="black"/>
<path fill-rule="evenodd" clip-rule="evenodd" d="M195.202 0.00585938V5.57638H186.191V0.00585938H181.395V16H186.191V9.3095H195.202V16H199.999V0.00585938H195.202Z" fill="black"/>
</svg>
